<mxfile host="app.diagrams.net" agent="Mozilla/5.0 (Windows NT 10.0; Win64; x64) AppleWebKit/537.36 (KHTML, like Gecko) Chrome/133.0.0.0 Safari/537.36 Edg/133.0.0.0" version="26.0.14">
  <diagram name="Página-1" id="mQBnl66r3Gyf1s8AdO0g">
    <mxGraphModel dx="2807" dy="1073" grid="1" gridSize="10" guides="1" tooltips="1" connect="1" arrows="1" fold="1" page="1" pageScale="1" pageWidth="827" pageHeight="1169" math="0" shadow="0">
      <root>
        <mxCell id="0" />
        <mxCell id="1" parent="0" />
        <mxCell id="S8Ucj60LTVhsjl9VZMLG-5" value="Contextos" style="swimlane;whiteSpace=wrap;html=1;fontSize=20;startSize=40;" vertex="1" parent="1">
          <mxGeometry x="90" y="170" width="390" height="940" as="geometry" />
        </mxCell>
        <object label="&lt;font style=&quot;font-size: 14px&quot;&gt;&lt;b&gt;%A_NAME%&lt;/b&gt;&lt;/font&gt;&lt;br&gt;&lt;div&gt;&lt;font style=&quot;font-size: 11px&quot;&gt;[Person]&lt;/font&gt;&lt;/div&gt;&lt;div style=&quot;font-size: 6px&quot;&gt;&lt;br&gt;&lt;/div&gt;&lt;div style=&quot;font-size: 11px&quot;&gt;&lt;font color=&quot;#CCCCCC&quot;&gt;%B_DESCRIPTION%&lt;/font&gt;&lt;/div&gt;" A_NAME="Vendedor" B_DESCRIPTION="Cadastra produtos e gerencia vendas." placeholders="1" id="S8Ucj60LTVhsjl9VZMLG-7">
          <mxCell style="shape=stencil(tZTdboMwDIWfJpdFIVnHbiu6vUca3GEVEpRk6s/TL+BULVpTTWorceNz4OM42DBZ+1YNwAQ3qgcm10yI9qhtv9BviwGctyYq0W7JK9851ftUf6Ra+QF0IHGLB2hI9sHZHeyxCQmApgWHYXTlJ+OreM94yVpbYyIBrfEz58qPMIUmPssPBOPFkl5zTDVVMTf2EMCljKQy8fV/8BxbVM8Cl68C80LMz6J8Hvll4OoBsqyjkhsaWW+U3n07+2Oam3kmx40Tm/nmuTk/7wE/z73THk9pcyS/fwpb7DraiFxDmdjxUevgTj/QdTh4uHSzvLkZqZtq3kz1cOw/6SaVfi2T8As=);whiteSpace=wrap;html=1;rounded=1;fontColor=#ffffff;strokeColor=#000054;fillColor=#000084;spacing=5;spacingTop=65;arcSize=30;metaEdit=1;allowArrows=0;expand=0;recursiveResize=0;rotatable=0;resizable=0;" vertex="1" parent="S8Ucj60LTVhsjl9VZMLG-5">
            <mxGeometry x="105" y="240" width="180" height="160" as="geometry" />
          </mxCell>
        </object>
        <object label="&lt;font style=&quot;font-size: 14px&quot;&gt;&lt;b&gt;%A_NAME%&lt;/b&gt;&lt;/font&gt;&lt;br&gt;&lt;div&gt;&lt;font style=&quot;font-size: 11px&quot;&gt;[Software System]&lt;/font&gt;&lt;/div&gt;&lt;div style=&quot;font-size: 6px&quot;&gt;&lt;br&gt;&lt;/div&gt;&lt;div style=&quot;font-size: 11px&quot;&gt;&lt;font color=&quot;#CCCCCC&quot;&gt;%B_DESCRIPTION%&lt;/font&gt;&lt;/div&gt;" placeholders="1" A_NAME="Provedor de Pagamento" B_DESCRIPTION="Fornece integração de pagamentos locais e microempreendedores." id="S8Ucj60LTVhsjl9VZMLG-8">
          <mxCell style="rounded=1;whiteSpace=wrap;html=1;fontColor=#ffffff;arcSize=6;metaEdit=1;points=[[0.25,0,0],[0.5,0,0],[0.75,0,0],[1,0.25,0],[1,0.5,0],[1,0.75,0],[0.75,1,0],[0.5,1,0],[0.25,1,0],[0,0.75,0],[0,0.5,0],[0,0.25,0]];resizable=0;editable=1;fillColor=#7b7484;strokeColor=#635970;movableLabel=0;allowArrows=0;rotatable=0;imageWidth=24;spacing=5;" vertex="1" parent="S8Ucj60LTVhsjl9VZMLG-5">
            <mxGeometry x="85" y="440" width="220" height="100" as="geometry" />
          </mxCell>
        </object>
        <object label="&lt;font style=&quot;font-size: 14px&quot;&gt;&lt;b&gt;%A_NAME%&lt;/b&gt;&lt;/font&gt;&lt;br&gt;&lt;div&gt;&lt;font style=&quot;font-size: 11px&quot;&gt;[Person]&lt;/font&gt;&lt;/div&gt;&lt;div style=&quot;font-size: 6px&quot;&gt;&lt;br&gt;&lt;/div&gt;&lt;div style=&quot;font-size: 11px&quot;&gt;&lt;font color=&quot;#CCCCCC&quot;&gt;%B_DESCRIPTION%&lt;/font&gt;&lt;/div&gt;" A_NAME="Usuário Final" B_DESCRIPTION="Acessa o marketplace para comprar produtos." placeholders="1" id="S8Ucj60LTVhsjl9VZMLG-9">
          <mxCell style="shape=stencil(tZTdboMwDIWfJpdFIVnHbiu6vUca3GEVEpRk6s/TL+BULVpTTWorceNz4OM42DBZ+1YNwAQ3qgcm10yI9qhtv9BviwGctyYq0W7JK9851ftUf6Ra+QF0IHGLB2hI9sHZHeyxCQmApgWHYXTlJ+OreM94yVpbYyIBrfEz58qPMIUmPssPBOPFkl5zTDVVMTf2EMCljKQy8fV/8BxbVM8Cl68C80LMz6J8Hvll4OoBsqyjkhsaWW+U3n07+2Oam3kmx40Tm/nmuTk/7wE/z73THk9pcyS/fwpb7DraiFxDmdjxUevgTj/QdTh4uHSzvLkZqZtq3kz1cOw/6SaVfi2T8As=);whiteSpace=wrap;html=1;rounded=1;fontColor=#ffffff;strokeColor=#483F55;fillColor=#60596A;spacing=5;spacingTop=65;arcSize=30;allowArrows=0;recursiveResize=0;expand=0;metaEdit=1;resizable=0;rotatable=0;" vertex="1" parent="S8Ucj60LTVhsjl9VZMLG-5">
            <mxGeometry x="105" y="60" width="180" height="160" as="geometry" />
          </mxCell>
        </object>
        <object label="&lt;font style=&quot;font-size: 14px&quot;&gt;&lt;b&gt;%A_NAME%&lt;/b&gt;&lt;/font&gt;&lt;br&gt;&lt;div&gt;&lt;font style=&quot;font-size: 11px&quot;&gt;[Person]&lt;/font&gt;&lt;/div&gt;&lt;div style=&quot;font-size: 6px&quot;&gt;&lt;br&gt;&lt;/div&gt;&lt;div style=&quot;font-size: 11px&quot;&gt;&lt;font color=&quot;#CCCCCC&quot;&gt;%B_DESCRIPTION%&lt;/font&gt;&lt;/div&gt;" A_NAME="Administração do Marketplace" B_DESCRIPTION="Gerencia usuários e produtos." placeholders="1" id="S8Ucj60LTVhsjl9VZMLG-10">
          <mxCell style="shape=stencil(tZTdboMwDIWfJpdFIVnHbiu6vUca3GEVEpRk6s/TL+BULVpTTWorceNz4OM42DBZ+1YNwAQ3qgcm10yI9qhtv9BviwGctyYq0W7JK9851ftUf6Ra+QF0IHGLB2hI9sHZHeyxCQmApgWHYXTlJ+OreM94yVpbYyIBrfEz58qPMIUmPssPBOPFkl5zTDVVMTf2EMCljKQy8fV/8BxbVM8Cl68C80LMz6J8Hvll4OoBsqyjkhsaWW+U3n07+2Oam3kmx40Tm/nmuTk/7wE/z73THk9pcyS/fwpb7DraiFxDmdjxUevgTj/QdTh4uHSzvLkZqZtq3kz1cOw/6SaVfi2T8As=);whiteSpace=wrap;html=1;rounded=1;fontColor=#ffffff;strokeColor=#000054;fillColor=#000084;spacing=5;spacingTop=65;arcSize=30;metaEdit=1;allowArrows=0;expand=0;recursiveResize=0;rotatable=0;resizable=0;" vertex="1" parent="S8Ucj60LTVhsjl9VZMLG-5">
            <mxGeometry x="105" y="570" width="180" height="160" as="geometry" />
          </mxCell>
        </object>
        <object label="&lt;font style=&quot;font-size: 14px&quot;&gt;&lt;b&gt;%A_NAME%&lt;/b&gt;&lt;/font&gt;&lt;br&gt;&lt;div&gt;&lt;font style=&quot;font-size: 11px&quot;&gt;[Software System]&lt;/font&gt;&lt;/div&gt;&lt;div style=&quot;font-size: 6px&quot;&gt;&lt;br&gt;&lt;/div&gt;&lt;div style=&quot;font-size: 11px&quot;&gt;&lt;font color=&quot;#CCCCCC&quot;&gt;%B_DESCRIPTION%&lt;/font&gt;&lt;/div&gt;" placeholders="1" A_NAME="Marketplace" B_DESCRIPTION="Sistema de marketplace de produtos artesanais e regionais do nordeste brasileiro." id="S8Ucj60LTVhsjl9VZMLG-19">
          <mxCell style="rounded=1;whiteSpace=wrap;html=1;fontColor=#ffffff;arcSize=6;metaEdit=1;points=[[0.25,0,0],[0.5,0,0],[0.75,0,0],[1,0.25,0],[1,0.5,0],[1,0.75,0],[0.75,1,0],[0.5,1,0],[0.25,1,0],[0,0.75,0],[0,0.5,0],[0,0.25,0]];resizable=0;editable=1;fillColor=#48279E;strokeColor=#2C186C;movableLabel=0;allowArrows=0;rotatable=0;imageWidth=24;spacing=5;" vertex="1" parent="S8Ucj60LTVhsjl9VZMLG-5">
            <mxGeometry x="85" y="780" width="220" height="100" as="geometry" />
          </mxCell>
        </object>
        <mxCell id="S8Ucj60LTVhsjl9VZMLG-17" style="edgeStyle=orthogonalEdgeStyle;rounded=0;orthogonalLoop=1;jettySize=auto;html=1;entryX=0;entryY=0.5;entryDx=0;entryDy=0;" edge="1" parent="1" source="S8Ucj60LTVhsjl9VZMLG-11" target="S8Ucj60LTVhsjl9VZMLG-5">
          <mxGeometry relative="1" as="geometry" />
        </mxCell>
        <mxCell id="S8Ucj60LTVhsjl9VZMLG-11" value="Objetivos do Sistema" style="swimlane;fontStyle=1;childLayout=stackLayout;horizontal=1;startSize=35;horizontalStack=0;resizeParent=1;resizeParentMax=0;resizeLast=0;collapsible=1;marginBottom=0;whiteSpace=wrap;html=1;labelBackgroundColor=default;labelBorderColor=none;textShadow=0;fontSize=20;" vertex="1" parent="1">
          <mxGeometry x="-400" y="397.5" width="330" height="335" as="geometry" />
        </mxCell>
        <mxCell id="S8Ucj60LTVhsjl9VZMLG-12" value="&lt;p data-pm-slice=&quot;1 1 [&amp;quot;list&amp;quot;,{&amp;quot;spread&amp;quot;:false,&amp;quot;start&amp;quot;:103,&amp;quot;end&amp;quot;:367},&amp;quot;regular_list_item&amp;quot;,{&amp;quot;start&amp;quot;:103,&amp;quot;end&amp;quot;:175}]&quot;&gt;Marketplace de produtos artesanais e regionais do nordeste brasileiro.&lt;/p&gt;" style="text;strokeColor=default;fillColor=none;align=center;verticalAlign=middle;spacingLeft=4;spacingRight=4;overflow=hidden;points=[[0,0.5],[1,0.5]];portConstraint=eastwest;rotatable=0;whiteSpace=wrap;html=1;fontSize=15;" vertex="1" parent="S8Ucj60LTVhsjl9VZMLG-11">
          <mxGeometry y="35" width="330" height="75" as="geometry" />
        </mxCell>
        <mxCell id="S8Ucj60LTVhsjl9VZMLG-13" value="&lt;p data-pm-slice=&quot;1 1 [&amp;quot;list&amp;quot;,{&amp;quot;spread&amp;quot;:false,&amp;quot;start&amp;quot;:103,&amp;quot;end&amp;quot;:367},&amp;quot;regular_list_item&amp;quot;,{&amp;quot;start&amp;quot;:176,&amp;quot;end&amp;quot;:238}]&quot;&gt;Facilita a venda de produtos por microempreendedores locais.&lt;/p&gt;" style="text;strokeColor=default;fillColor=none;align=center;verticalAlign=middle;spacingLeft=4;spacingRight=4;overflow=hidden;points=[[0,0.5],[1,0.5]];portConstraint=eastwest;rotatable=0;whiteSpace=wrap;html=1;fontSize=15;" vertex="1" parent="S8Ucj60LTVhsjl9VZMLG-11">
          <mxGeometry y="110" width="330" height="75" as="geometry" />
        </mxCell>
        <mxCell id="S8Ucj60LTVhsjl9VZMLG-14" value="&lt;p data-pm-slice=&quot;1 1 [&amp;quot;list&amp;quot;,{&amp;quot;spread&amp;quot;:false,&amp;quot;start&amp;quot;:103,&amp;quot;end&amp;quot;:367},&amp;quot;regular_list_item&amp;quot;,{&amp;quot;start&amp;quot;:239,&amp;quot;end&amp;quot;:293}]&quot;&gt;Permite integração com sistemas de pagamento locais.&lt;/p&gt;" style="text;strokeColor=default;fillColor=none;align=center;verticalAlign=middle;spacingLeft=4;spacingRight=4;overflow=hidden;points=[[0,0.5],[1,0.5]];portConstraint=eastwest;rotatable=0;whiteSpace=wrap;html=1;fontSize=15;" vertex="1" parent="S8Ucj60LTVhsjl9VZMLG-11">
          <mxGeometry y="185" width="330" height="75" as="geometry" />
        </mxCell>
        <mxCell id="S8Ucj60LTVhsjl9VZMLG-16" value="&lt;p data-pm-slice=&quot;1 1 [&amp;quot;list&amp;quot;,{&amp;quot;spread&amp;quot;:false,&amp;quot;start&amp;quot;:103,&amp;quot;end&amp;quot;:367},&amp;quot;regular_list_item&amp;quot;,{&amp;quot;start&amp;quot;:294,&amp;quot;end&amp;quot;:367}]&quot;&gt;Suporta escalabilidade e alta disponibilidade durante eventos sazonais.&lt;/p&gt;" style="text;strokeColor=default;fillColor=none;align=center;verticalAlign=middle;spacingLeft=4;spacingRight=4;overflow=hidden;points=[[0,0.5],[1,0.5]];portConstraint=eastwest;rotatable=0;whiteSpace=wrap;html=1;fontSize=15;" vertex="1" parent="S8Ucj60LTVhsjl9VZMLG-11">
          <mxGeometry y="260" width="330" height="75" as="geometry" />
        </mxCell>
        <mxCell id="S8Ucj60LTVhsjl9VZMLG-18" value="&lt;h2 data-pm-slice=&quot;1 1 []&quot;&gt;&lt;font style=&quot;font-size: 20px;&quot;&gt;Contêineres&amp;nbsp;&lt;/font&gt;&lt;/h2&gt;" style="swimlane;whiteSpace=wrap;html=1;startSize=40;fontSize=20;fontStyle=1" vertex="1" parent="1">
          <mxGeometry x="750" y="240" width="360" height="2275" as="geometry" />
        </mxCell>
        <object label="&lt;font style=&quot;font-size: 14px&quot;&gt;&lt;b&gt;%A_NAME%&lt;/b&gt;&lt;/font&gt;&lt;br&gt;&lt;div&gt;&lt;font style=&quot;font-size: 11px&quot;&gt;[Software System]&lt;/font&gt;&lt;/div&gt;&lt;div style=&quot;font-size: 6px&quot;&gt;&lt;br&gt;&lt;/div&gt;&lt;div style=&quot;font-size: 11px&quot;&gt;&lt;font color=&quot;#CCCCCC&quot;&gt;%B_DESCRIPTION%&lt;/font&gt;&lt;/div&gt;" placeholders="1" A_NAME="Serviço de Usuários" B_DESCRIPTION="Sistema voltado para registro de usuários e controles de acesso." id="S8Ucj60LTVhsjl9VZMLG-2">
          <mxCell style="rounded=1;whiteSpace=wrap;html=1;fontColor=#ffffff;arcSize=6;metaEdit=1;points=[[0.25,0,0],[0.5,0,0],[0.75,0,0],[1,0.25,0],[1,0.5,0],[1,0.75,0],[0.75,1,0],[0.5,1,0],[0.25,1,0],[0,0.75,0],[0,0.5,0],[0,0.25,0]];resizable=0;editable=1;fillColor=#48279E;strokeColor=#2C186C;movableLabel=0;allowArrows=0;rotatable=0;imageWidth=24;spacing=5;" vertex="1" parent="S8Ucj60LTVhsjl9VZMLG-18">
            <mxGeometry x="70" y="420" width="220" height="100" as="geometry" />
          </mxCell>
        </object>
        <object label="&lt;font style=&quot;font-size: 14px&quot;&gt;&lt;b&gt;%A_NAME%&lt;/b&gt;&lt;/font&gt;&lt;br&gt;&lt;div&gt;&lt;font style=&quot;font-size: 11px&quot;&gt;[Software System]&lt;/font&gt;&lt;/div&gt;&lt;div style=&quot;font-size: 6px&quot;&gt;&lt;br&gt;&lt;/div&gt;&lt;div style=&quot;font-size: 11px&quot;&gt;&lt;font color=&quot;#CCCCCC&quot;&gt;%B_DESCRIPTION%&lt;/font&gt;&lt;/div&gt;" placeholders="1" A_NAME="Api Gateway" B_DESCRIPTION=" Todas as requisições passam por ele antes de serem direcionadas para o Kafka." id="S8Ucj60LTVhsjl9VZMLG-21">
          <mxCell style="rounded=1;whiteSpace=wrap;html=1;fontColor=#ffffff;arcSize=6;metaEdit=1;points=[[0.25,0,0],[0.5,0,0],[0.75,0,0],[1,0.25,0],[1,0.5,0],[1,0.75,0],[0.75,1,0],[0.5,1,0],[0.25,1,0],[0,0.75,0],[0,0.5,0],[0,0.25,0]];resizable=0;editable=1;fillColor=#48279E;strokeColor=#2C186C;movableLabel=0;allowArrows=0;rotatable=0;imageWidth=24;spacing=5;" vertex="1" parent="S8Ucj60LTVhsjl9VZMLG-18">
            <mxGeometry x="67" y="100" width="220" height="100" as="geometry" />
          </mxCell>
        </object>
        <object label="&lt;font style=&quot;font-size: 14px&quot;&gt;&lt;b&gt;%A_NAME%&lt;/b&gt;&lt;/font&gt;&lt;br&gt;&lt;div&gt;&lt;font style=&quot;font-size: 11px&quot;&gt;[Software System]&lt;/font&gt;&lt;/div&gt;&lt;div style=&quot;font-size: 6px&quot;&gt;&lt;br&gt;&lt;/div&gt;&lt;div style=&quot;font-size: 11px&quot;&gt;&lt;font color=&quot;#CCCCCC&quot;&gt;%B_DESCRIPTION%&lt;/font&gt;&lt;/div&gt;" placeholders="1" A_NAME="Serviço de Carrinho de Compras" B_DESCRIPTION="Gerencia adição, remoção e atualização de itens no carrinho." id="S8Ucj60LTVhsjl9VZMLG-22">
          <mxCell style="rounded=1;whiteSpace=wrap;html=1;fontColor=#ffffff;arcSize=6;metaEdit=1;points=[[0.25,0,0],[0.5,0,0],[0.75,0,0],[1,0.25,0],[1,0.5,0],[1,0.75,0],[0.75,1,0],[0.5,1,0],[0.25,1,0],[0,0.75,0],[0,0.5,0],[0,0.25,0]];resizable=0;editable=1;fillColor=#48279E;strokeColor=#2C186C;movableLabel=0;allowArrows=0;rotatable=0;imageWidth=24;spacing=5;" vertex="1" parent="S8Ucj60LTVhsjl9VZMLG-18">
            <mxGeometry x="67" y="580" width="220" height="100" as="geometry" />
          </mxCell>
        </object>
        <object label="&lt;font style=&quot;font-size: 14px&quot;&gt;&lt;b&gt;%A_NAME%&lt;/b&gt;&lt;/font&gt;&lt;br&gt;&lt;div&gt;&lt;font style=&quot;font-size: 11px&quot;&gt;[Software System]&lt;/font&gt;&lt;/div&gt;&lt;div style=&quot;font-size: 6px&quot;&gt;&lt;br&gt;&lt;/div&gt;&lt;div style=&quot;font-size: 11px&quot;&gt;&lt;font color=&quot;#CCCCCC&quot;&gt;%B_DESCRIPTION%&lt;/font&gt;&lt;/div&gt;" placeholders="1" A_NAME="Serviço de Pagamento" B_DESCRIPTION="Processa transações e se comunica com o provedor de pagamento." id="S8Ucj60LTVhsjl9VZMLG-23">
          <mxCell style="rounded=1;whiteSpace=wrap;html=1;fontColor=#ffffff;arcSize=6;metaEdit=1;points=[[0.25,0,0],[0.5,0,0],[0.75,0,0],[1,0.25,0],[1,0.5,0],[1,0.75,0],[0.75,1,0],[0.5,1,0],[0.25,1,0],[0,0.75,0],[0,0.5,0],[0,0.25,0]];resizable=0;editable=1;fillColor=#48279E;strokeColor=#2C186C;movableLabel=0;allowArrows=0;rotatable=0;imageWidth=24;spacing=5;" vertex="1" parent="S8Ucj60LTVhsjl9VZMLG-18">
            <mxGeometry x="67" y="740" width="220" height="100" as="geometry" />
          </mxCell>
        </object>
        <object label="&lt;font style=&quot;font-size: 14px&quot;&gt;&lt;b&gt;%A_NAME%&lt;/b&gt;&lt;/font&gt;&lt;br&gt;&lt;div&gt;&lt;font style=&quot;font-size: 11px&quot;&gt;[Software System]&lt;/font&gt;&lt;/div&gt;&lt;div style=&quot;font-size: 6px&quot;&gt;&lt;br&gt;&lt;/div&gt;&lt;div style=&quot;font-size: 11px&quot;&gt;&lt;font color=&quot;#CCCCCC&quot;&gt;%B_DESCRIPTION%&lt;/font&gt;&lt;/div&gt;" placeholders="1" A_NAME="Serviço de Notificações" B_DESCRIPTION="Envia e gerencia notificações para os usuários." id="S8Ucj60LTVhsjl9VZMLG-24">
          <mxCell style="rounded=1;whiteSpace=wrap;html=1;fontColor=#ffffff;arcSize=6;metaEdit=1;points=[[0.25,0,0],[0.5,0,0],[0.75,0,0],[1,0.25,0],[1,0.5,0],[1,0.75,0],[0.75,1,0],[0.5,1,0],[0.25,1,0],[0,0.75,0],[0,0.5,0],[0,0.25,0]];resizable=0;editable=1;fillColor=#48279E;strokeColor=#2C186C;movableLabel=0;allowArrows=0;rotatable=0;imageWidth=24;spacing=5;" vertex="1" parent="S8Ucj60LTVhsjl9VZMLG-18">
            <mxGeometry x="70" y="900" width="220" height="100" as="geometry" />
          </mxCell>
        </object>
        <object label="&lt;font style=&quot;font-size: 14px&quot;&gt;&lt;b&gt;%A_NAME%&lt;/b&gt;&lt;/font&gt;&lt;br&gt;&lt;div&gt;&lt;font style=&quot;font-size: 11px&quot;&gt;[Software System]&lt;/font&gt;&lt;/div&gt;&lt;div style=&quot;font-size: 6px&quot;&gt;&lt;br&gt;&lt;/div&gt;&lt;div style=&quot;font-size: 11px&quot;&gt;&lt;font color=&quot;#CCCCCC&quot;&gt;%B_DESCRIPTION%&lt;/font&gt;&lt;/div&gt;" placeholders="1" A_NAME="Serviço de Pedidos" B_DESCRIPTION="Processa compras e acompanha status dos pedidos." id="S8Ucj60LTVhsjl9VZMLG-25">
          <mxCell style="rounded=1;whiteSpace=wrap;html=1;fontColor=#ffffff;arcSize=6;metaEdit=1;points=[[0.25,0,0],[0.5,0,0],[0.75,0,0],[1,0.25,0],[1,0.5,0],[1,0.75,0],[0.75,1,0],[0.5,1,0],[0.25,1,0],[0,0.75,0],[0,0.5,0],[0,0.25,0]];resizable=0;editable=1;fillColor=#48279E;strokeColor=#2C186C;movableLabel=0;allowArrows=0;rotatable=0;imageWidth=24;spacing=5;" vertex="1" parent="S8Ucj60LTVhsjl9VZMLG-18">
            <mxGeometry x="67" y="1060" width="220" height="100" as="geometry" />
          </mxCell>
        </object>
        <object label="&lt;font style=&quot;font-size: 14px&quot;&gt;&lt;b&gt;%A_NAME%&lt;/b&gt;&lt;/font&gt;&lt;br&gt;&lt;div&gt;&lt;font style=&quot;font-size: 11px&quot;&gt;[Software System]&lt;/font&gt;&lt;/div&gt;&lt;div style=&quot;font-size: 6px&quot;&gt;&lt;br&gt;&lt;/div&gt;&lt;div style=&quot;font-size: 11px&quot;&gt;&lt;font color=&quot;#CCCCCC&quot;&gt;%B_DESCRIPTION%&lt;/font&gt;&lt;/div&gt;" placeholders="1" A_NAME="Serviço de Produtos" B_DESCRIPTION="Sistema voltado para cadastro, atualização e busca de produtos." id="S8Ucj60LTVhsjl9VZMLG-26">
          <mxCell style="rounded=1;whiteSpace=wrap;html=1;fontColor=#ffffff;arcSize=6;metaEdit=1;points=[[0.25,0,0],[0.5,0,0],[0.75,0,0],[1,0.25,0],[1,0.5,0],[1,0.75,0],[0.75,1,0],[0.5,1,0],[0.25,1,0],[0,0.75,0],[0,0.5,0],[0,0.25,0]];resizable=0;editable=1;fillColor=#48279E;strokeColor=#2C186C;movableLabel=0;allowArrows=0;rotatable=0;imageWidth=24;spacing=5;" vertex="1" parent="S8Ucj60LTVhsjl9VZMLG-18">
            <mxGeometry x="67" y="1220" width="220" height="100" as="geometry" />
          </mxCell>
        </object>
        <object label="&lt;font style=&quot;font-size: 14px&quot;&gt;&lt;b&gt;%A_NAME%&lt;/b&gt;&lt;/font&gt;&lt;br&gt;&lt;div&gt;&lt;font style=&quot;font-size: 11px&quot;&gt;[Software System]&lt;/font&gt;&lt;/div&gt;&lt;div style=&quot;font-size: 6px&quot;&gt;&lt;br&gt;&lt;/div&gt;&lt;div style=&quot;font-size: 11px&quot;&gt;&lt;font color=&quot;#CCCCCC&quot;&gt;%B_DESCRIPTION%&lt;/font&gt;&lt;/div&gt;" placeholders="1" A_NAME="Serviço de Relatórios e Analytics" B_DESCRIPTION="Gera insights sobre vendas, tráfego e comportamento do usuário." id="S8Ucj60LTVhsjl9VZMLG-28">
          <mxCell style="rounded=1;whiteSpace=wrap;html=1;fontColor=#ffffff;arcSize=6;metaEdit=1;points=[[0.25,0,0],[0.5,0,0],[0.75,0,0],[1,0.25,0],[1,0.5,0],[1,0.75,0],[0.75,1,0],[0.5,1,0],[0.25,1,0],[0,0.75,0],[0,0.5,0],[0,0.25,0]];resizable=0;editable=1;fillColor=#48279E;strokeColor=#2C186C;movableLabel=0;allowArrows=0;rotatable=0;imageWidth=24;spacing=5;" vertex="1" parent="S8Ucj60LTVhsjl9VZMLG-18">
            <mxGeometry x="70" y="1380" width="220" height="100" as="geometry" />
          </mxCell>
        </object>
        <object label="&lt;font style=&quot;font-size: 14px&quot; color=&quot;#FFFFFF&quot;&gt;&lt;b&gt;&lt;font style=&quot;font-size: 14px&quot;&gt;&lt;span&gt;%A_NAME%&lt;/span&gt;&lt;/font&gt;&lt;/b&gt;&lt;/font&gt;&lt;font color=&quot;#FFFFFF&quot;&gt;&lt;br&gt;&lt;/font&gt;&lt;div&gt;&lt;font style=&quot;font-size: 11px&quot; color=&quot;#FFFFFF&quot;&gt;[Container: %B_TECHNOLOGY%]&lt;/font&gt;&lt;/div&gt;&lt;div style=&quot;font-size: 6px&quot;&gt;&lt;font color=&quot;#FFFFFF&quot;&gt;&lt;br&gt;&lt;/font&gt;&lt;/div&gt;&lt;div style=&quot;font-size: 11px&quot;&gt;&lt;font color=&quot;#E6E6E6&quot;&gt;%C_DESCRIPTION%&lt;/font&gt;&lt;/div&gt;" A_NAME="Aplicação Mobile" B_TECHNOLOGY="Android, iOS" C_DESCRIPTION="Aplicativo móvel para facilitar o acesso ao marketplace." placeholders="1" id="S8Ucj60LTVhsjl9VZMLG-58">
          <mxCell style="shape=stencil(zVXLboMwEPwaH0HG5pEeUyf8h2OcYgVsZKiS9OtrWKTGKZCqTdSc0M4y491hLBBlbckbiQjWvJaIbhAh5VmYOhBxUJudqmTAm8ah7pUS+lGMoT5CTchY87aRogNwr06yALjtrDnIoyq6UUDpUlrV9V26RXiNegGMKBNGa6egjG69zkXfiXGlHRefQAyHCRxzHmuoGndCLTtpx5kBRST/ubAvG2b3Eo4eJYxD4nsR3U/5YcLZH5Qpc8hcaCjbcXF4s+ZdF5PzDB3bJ3bum0/H/PoacCta9TFennTZA7gLwlTGOgCeAw8RGm9o9PK6zN+rqppmJznN19vbbJhgzswZyxzVWLngpawq1bTyy8nUczJNPCujKyfxb5dOWZyw1W32QnsiBb3c5fD+7FnqD09WEzGIn2wjnHkrJX60Y2+jyVwn//GNhkh+S96Awm9rAD4B);whiteSpace=wrap;html=1;allowArrows=0;metaEdit=1;expand=0;recursiveResize=0;resizable=0;rotatable=0;strokeColor=#666666;fontFamily=Helvetica;fontSize=11;fontColor=#4D4D4D;spacingLeft=20;spacingRight=20;spacing=5;" vertex="1" parent="S8Ucj60LTVhsjl9VZMLG-18">
            <mxGeometry x="70" y="1695" width="220" height="140" as="geometry" />
          </mxCell>
        </object>
        <object label="&lt;font style=&quot;font-size: 14px&quot; color=&quot;#FFFFFF&quot;&gt;&lt;b&gt;&lt;font style=&quot;font-size: 14px&quot;&gt;&lt;span&gt;%A_NAME%&lt;/span&gt;&lt;/font&gt;&lt;/b&gt;&lt;/font&gt;&lt;font color=&quot;#FFFFFF&quot;&gt;&lt;br&gt;&lt;/font&gt;&lt;div&gt;&lt;font style=&quot;font-size: 11px&quot; color=&quot;#FFFFFF&quot;&gt;[Container: %B_TECHNOLOGY%]&lt;/font&gt;&lt;/div&gt;&lt;div style=&quot;font-size: 6px&quot;&gt;&lt;font color=&quot;#FFFFFF&quot;&gt;&lt;br&gt;&lt;/font&gt;&lt;/div&gt;&lt;div style=&quot;font-size: 11px&quot;&gt;&lt;font color=&quot;#E6E6E6&quot;&gt;%C_DESCRIPTION%&lt;/font&gt;&lt;/div&gt;" A_NAME="Aplicação Web" B_TECHNOLOGY="Angular, React, Vue.js" C_DESCRIPTION="Interface principal para usuários e vendedores." placeholders="1" id="S8Ucj60LTVhsjl9VZMLG-57">
          <mxCell style="shape=stencil(3VbbcoMgEP0aHuPAYtQ+pib5D4OkMjHgoB2Tfn3R9aGkanpJptM8ObvLOew5sgyEp3WRVZIA1dlREr4mAMVZmONChItW7hY7a9paWpd2awpcwEKKcYsxwBBndSVFg8m9Oskc03VjzUG2Km8GAqULaVXTVfmG0BXpCCjhqTBaOwZldO1VPtQdWaa0w9ITktFgiduchxijyu1wlI1rHXvGLIHt14l92iC+FTG7FzENwPeC3Y75bsTxL5h56jJTh4anu0wcXqx51floP33Fdid26p+PH/PLMcisqNXbMD3RvAc4C8KUxs0UxW+PI8DDNWdPz/P4vSrLcfRyy7erzXU0djBl5oRlDmqs/J6Xkedl5HnJogsvx6zk9KdeRGm4TJPr6JnyiCAWw5yk/6goSR5MEdDwwRT5YwTg30k08RUxGJEU/oGi/jb5dGn0WXxy9Il3);whiteSpace=wrap;html=1;spacingTop=12;allowArrows=0;metaEdit=1;resizable=0;rotatable=0;strokeColor=#666666;fontFamily=Helvetica;fontSize=11;fontColor=#4D4D4D;spacing=5;spacingLeft=8;spacingRight=8;" vertex="1" parent="S8Ucj60LTVhsjl9VZMLG-18">
            <mxGeometry x="67" y="1520" width="220" height="140" as="geometry" />
          </mxCell>
        </object>
        <object label="&lt;font style=&quot;font-size: 14px&quot; color=&quot;#FFFFFF&quot;&gt;&lt;b&gt;&lt;font style=&quot;font-size: 14px&quot;&gt;&lt;span&gt;%A_NAME%&lt;/span&gt;&lt;/font&gt;&lt;/b&gt;&lt;/font&gt;&lt;font color=&quot;#FFFFFF&quot;&gt;&lt;br&gt;&lt;/font&gt;&lt;div&gt;&lt;font style=&quot;font-size: 11px&quot; color=&quot;#FFFFFF&quot;&gt;[Container: %B_TECHNOLOGY%]&lt;/font&gt;&lt;/div&gt;&lt;div style=&quot;font-size: 6px&quot;&gt;&lt;font color=&quot;#FFFFFF&quot;&gt;&lt;br&gt;&lt;/font&gt;&lt;/div&gt;&lt;div style=&quot;font-size: 11px&quot; align=&quot;center&quot;&gt;&lt;font color=&quot;#E6E6E6&quot;&gt;%C_DESCRIPTION%&lt;/font&gt;&lt;/div&gt;" A_NAME="Solução de Cache" B_TECHNOLOGY="Redis" C_DESCRIPTION="Serviço de cache disponível para os demais serviços" placeholders="1" id="S8Ucj60LTVhsjl9VZMLG-59">
          <mxCell style="shape=cylinder3;whiteSpace=wrap;html=1;boundedLbl=1;backgroundOutline=0;size=15;fontFamily=Helvetica;fontSize=11;fontColor=#ffffff;strokeColor=#4D319B;rounded=1;fillColor=#6c45c8;spacing=5;spacingTop=-5;arcSize=6;rotation=90;textDirection=ltr;verticalAlign=middle;horizontal=0;allowArrows=0;recursiveResize=0;expand=0;resizable=0;rotatable=0;metaEdit=1;" vertex="1" parent="S8Ucj60LTVhsjl9VZMLG-18">
            <mxGeometry x="130" y="1835" width="100" height="220" as="geometry" />
          </mxCell>
        </object>
        <object label="&lt;font style=&quot;font-size: 14px&quot; color=&quot;#FFFFFF&quot;&gt;&lt;b&gt;&lt;font style=&quot;font-size: 14px&quot;&gt;&lt;span&gt;%A_NAME%&lt;/span&gt;&lt;/font&gt;&lt;/b&gt;&lt;/font&gt;&lt;font color=&quot;#FFFFFF&quot;&gt;&lt;br&gt;&lt;/font&gt;&lt;div&gt;&lt;font style=&quot;font-size: 11px&quot; color=&quot;#FFFFFF&quot;&gt;[Container: %B_TECHNOLOGY%]&lt;/font&gt;&lt;/div&gt;&lt;div style=&quot;font-size: 6px&quot;&gt;&lt;font color=&quot;#FFFFFF&quot;&gt;&lt;br&gt;&lt;/font&gt;&lt;/div&gt;&lt;div style=&quot;font-size: 11px&quot; align=&quot;center&quot;&gt;&lt;font color=&quot;#E6E6E6&quot;&gt;%C_DESCRIPTION%&lt;/font&gt;&lt;/div&gt;" A_NAME="Solução de deploy" B_TECHNOLOGY="Kubernetes, Docker" C_DESCRIPTION="Serviço de hospedagem dos demais serviços e gerenciador de escalabilidade vertical e horizontal dos serviços." placeholders="1" id="S8Ucj60LTVhsjl9VZMLG-60">
          <mxCell style="shape=cylinder3;whiteSpace=wrap;html=1;boundedLbl=1;backgroundOutline=0;size=15;fontFamily=Helvetica;fontSize=11;fontColor=#ffffff;strokeColor=#4D319B;rounded=1;fillColor=#6c45c8;spacing=5;spacingTop=-5;arcSize=6;rotation=90;textDirection=ltr;verticalAlign=middle;horizontal=0;allowArrows=0;recursiveResize=0;expand=0;resizable=0;rotatable=0;metaEdit=1;" vertex="1" parent="S8Ucj60LTVhsjl9VZMLG-18">
            <mxGeometry x="130" y="2000" width="100" height="220" as="geometry" />
          </mxCell>
        </object>
        <object label="&lt;font style=&quot;font-size: 14px&quot; color=&quot;#FFFFFF&quot;&gt;&lt;b&gt;&lt;font style=&quot;font-size: 14px&quot;&gt;&lt;span&gt;%A_NAME%&lt;/span&gt;&lt;/font&gt;&lt;/b&gt;&lt;/font&gt;&lt;font color=&quot;#FFFFFF&quot;&gt;&lt;br&gt;&lt;/font&gt;&lt;div&gt;&lt;font style=&quot;font-size: 11px&quot; color=&quot;#FFFFFF&quot;&gt;[Container: %B_TECHNOLOGY%]&lt;/font&gt;&lt;/div&gt;&lt;div style=&quot;font-size: 6px&quot;&gt;&lt;font color=&quot;#FFFFFF&quot;&gt;&lt;br&gt;&lt;/font&gt;&lt;/div&gt;&lt;div style=&quot;font-size: 11px&quot; align=&quot;center&quot;&gt;&lt;font color=&quot;#E6E6E6&quot;&gt;%C_DESCRIPTION%&lt;/font&gt;&lt;/div&gt;" A_NAME="Solução de Eventos" B_TECHNOLOGY="Kafka" C_DESCRIPTION="Serviço para registro e encaminhamento de eventos." placeholders="1" id="S8Ucj60LTVhsjl9VZMLG-61">
          <mxCell style="shape=cylinder3;whiteSpace=wrap;html=1;boundedLbl=1;backgroundOutline=0;size=15;fontFamily=Helvetica;fontSize=11;fontColor=#ffffff;strokeColor=#4D319B;rounded=1;fillColor=#6c45c8;spacing=5;spacingTop=-5;arcSize=6;rotation=90;textDirection=ltr;verticalAlign=middle;horizontal=0;allowArrows=0;recursiveResize=0;expand=0;resizable=0;rotatable=0;metaEdit=1;" vertex="1" parent="S8Ucj60LTVhsjl9VZMLG-18">
            <mxGeometry x="130" y="200" width="100" height="220" as="geometry" />
          </mxCell>
        </object>
        <mxCell id="S8Ucj60LTVhsjl9VZMLG-20" style="edgeStyle=orthogonalEdgeStyle;rounded=0;orthogonalLoop=1;jettySize=auto;html=1;exitX=1;exitY=0.5;exitDx=0;exitDy=0;exitPerimeter=0;entryX=0;entryY=0.5;entryDx=0;entryDy=0;" edge="1" parent="1" source="S8Ucj60LTVhsjl9VZMLG-19" target="S8Ucj60LTVhsjl9VZMLG-18">
          <mxGeometry relative="1" as="geometry" />
        </mxCell>
        <mxCell id="S8Ucj60LTVhsjl9VZMLG-43" value="&lt;font style=&quot;font-size: 20px;&quot;&gt;Componentes Back-End&lt;/font&gt;" style="swimlane;whiteSpace=wrap;html=1;startSize=45;" vertex="1" parent="1">
          <mxGeometry x="1545" y="350" width="400" height="1130" as="geometry" />
        </mxCell>
        <object label="&lt;font style=&quot;font-size: 14px&quot;&gt;&lt;b&gt;&lt;font style=&quot;font-size: 14px&quot;&gt;&lt;span&gt;%A_NAME%&lt;/span&gt;&lt;/font&gt;&lt;/b&gt;&lt;/font&gt;&lt;br&gt;&lt;div&gt;&lt;font style=&quot;font-size: 11px&quot;&gt;[Container: %B_TECHNOLOGY%]&lt;/font&gt;&lt;/div&gt;&lt;div style=&quot;font-size: 6px&quot;&gt;&lt;br&gt;&lt;/div&gt;&lt;div style=&quot;font-size: 11px&quot;&gt;&lt;font color=&quot;#E6E6E6&quot;&gt;%C_DESCRIPTION%&lt;/font&gt;&lt;/div&gt;" A_NAME="Banco de dados" B_TECHNOLOGY="PostgresSQL, MongoDB" C_DESCRIPTION="Cada serviço tem seu próprio banco de dados." placeholders="1" id="S8Ucj60LTVhsjl9VZMLG-66">
          <mxCell style="shape=cylinder3;whiteSpace=wrap;html=1;boundedLbl=1;backgroundOutline=1;size=15;rounded=1;fontColor=#ffffff;strokeColor=#4D319B;fillColor=#6c45c8;arcSize=6;autosize=0;metaEdit=1;resizable=0;rotatable=0;allowArrows=0;align=center;spacing=5;spacingTop=-5;verticalAlign=middle;" vertex="1" parent="S8Ucj60LTVhsjl9VZMLG-43">
            <mxGeometry x="90" y="120" width="220" height="110" as="geometry" />
          </mxCell>
        </object>
        <object label="&lt;font style=&quot;font-size: 14px&quot; color=&quot;#FFFFFF&quot;&gt;&lt;b&gt;&lt;font style=&quot;font-size: 14px&quot;&gt;&lt;span&gt;%A_NAME%&lt;/span&gt;&lt;/font&gt;&lt;/b&gt;&lt;/font&gt;&lt;font color=&quot;#FFFFFF&quot;&gt;&lt;br&gt;&lt;/font&gt;&lt;div&gt;&lt;font style=&quot;font-size: 11px&quot; color=&quot;#FFFFFF&quot;&gt;[Container: %B_TECHNOLOGY%]&lt;/font&gt;&lt;/div&gt;&lt;div style=&quot;font-size: 6px&quot;&gt;&lt;font color=&quot;#FFFFFF&quot;&gt;&lt;br&gt;&lt;/font&gt;&lt;/div&gt;&lt;div style=&quot;font-size: 11px&quot; align=&quot;center&quot;&gt;&lt;font color=&quot;#E6E6E6&quot;&gt;%C_DESCRIPTION%&lt;/font&gt;&lt;/div&gt;" A_NAME="Mensageria de Eventos" B_TECHNOLOGY="Kafka" C_DESCRIPTION="Kafka é o intermediário de comunicação entre serviços." placeholders="1" id="S8Ucj60LTVhsjl9VZMLG-67">
          <mxCell style="shape=cylinder3;whiteSpace=wrap;html=1;boundedLbl=1;backgroundOutline=0;size=15;fontFamily=Helvetica;fontSize=11;fontColor=#ffffff;strokeColor=#4D319B;rounded=1;fillColor=#6c45c8;spacing=5;spacingTop=-5;arcSize=6;rotation=90;textDirection=ltr;verticalAlign=middle;horizontal=0;allowArrows=0;recursiveResize=0;expand=0;resizable=0;rotatable=0;metaEdit=1;" vertex="1" parent="S8Ucj60LTVhsjl9VZMLG-43">
            <mxGeometry x="150" y="220" width="100" height="220" as="geometry" />
          </mxCell>
        </object>
        <object label="&lt;font style=&quot;font-size: 14px&quot; color=&quot;#FFFFFF&quot;&gt;&lt;b&gt;&lt;font style=&quot;font-size: 14px&quot;&gt;&lt;span&gt;%A_NAME%&lt;/span&gt;&lt;/font&gt;&lt;/b&gt;&lt;/font&gt;&lt;font color=&quot;#FFFFFF&quot;&gt;&lt;br&gt;&lt;/font&gt;&lt;div&gt;&lt;font style=&quot;font-size: 11px&quot; color=&quot;#FFFFFF&quot;&gt;[Container: %B_TECHNOLOGY%]&lt;/font&gt;&lt;/div&gt;&lt;div style=&quot;font-size: 6px&quot;&gt;&lt;font color=&quot;#FFFFFF&quot;&gt;&lt;br&gt;&lt;/font&gt;&lt;/div&gt;&lt;div style=&quot;font-size: 11px&quot; align=&quot;center&quot;&gt;&lt;font color=&quot;#E6E6E6&quot;&gt;%C_DESCRIPTION%&lt;/font&gt;&lt;/div&gt;" A_NAME="Cache" B_TECHNOLOGY="Redis" C_DESCRIPTION="Redis é utilizado para otimizar desempenho e reduzir carga no banco de dados." placeholders="1" id="S8Ucj60LTVhsjl9VZMLG-68">
          <mxCell style="shape=cylinder3;whiteSpace=wrap;html=1;boundedLbl=1;backgroundOutline=0;size=15;fontFamily=Helvetica;fontSize=11;fontColor=#ffffff;strokeColor=#4D319B;rounded=1;fillColor=#6c45c8;spacing=5;spacingTop=-5;arcSize=6;rotation=90;textDirection=ltr;verticalAlign=middle;horizontal=0;allowArrows=0;recursiveResize=0;expand=0;resizable=0;rotatable=0;metaEdit=1;" vertex="1" parent="S8Ucj60LTVhsjl9VZMLG-43">
            <mxGeometry x="150" y="370" width="100" height="220" as="geometry" />
          </mxCell>
        </object>
        <object label="&lt;font style=&quot;font-size: 14px&quot; color=&quot;#FFFFFF&quot;&gt;&lt;b&gt;&lt;font style=&quot;font-size: 14px&quot;&gt;&lt;span&gt;%A_NAME%&lt;/span&gt;&lt;/font&gt;&lt;/b&gt;&lt;/font&gt;&lt;font color=&quot;#FFFFFF&quot;&gt;&lt;br&gt;&lt;/font&gt;&lt;div&gt;&lt;font style=&quot;font-size: 11px&quot; color=&quot;#FFFFFF&quot;&gt;[Container: %B_TECHNOLOGY%]&lt;/font&gt;&lt;/div&gt;&lt;div style=&quot;font-size: 6px&quot;&gt;&lt;font color=&quot;#FFFFFF&quot;&gt;&lt;br&gt;&lt;/font&gt;&lt;/div&gt;&lt;div style=&quot;font-size: 11px&quot; align=&quot;center&quot;&gt;&lt;font color=&quot;#E6E6E6&quot;&gt;%C_DESCRIPTION%&lt;/font&gt;&lt;/div&gt;" placeholders="1" A_NAME="Autenticação e Autorização" B_TECHNOLOGY="JWT /OAuth2" C_DESCRIPTION="JWT /OAuth2 são utilizados para controle de acesso." id="S8Ucj60LTVhsjl9VZMLG-69">
          <mxCell style="shape=hexagon;perimeter=hexagonPerimeter2;whiteSpace=wrap;html=1;fixedSize=1;fontFamily=Helvetica;fontSize=11;fontColor=#ffffff;strokeColor=#4D319B;rounded=1;fillColor=#6c45c8;spacing=20;arcSize=11;size=46.666666666666515;allowArrows=0;editable=1;metaEdit=1;expand=0;recursiveResize=0;resizable=0;rotatable=0;" vertex="1" parent="S8Ucj60LTVhsjl9VZMLG-43">
            <mxGeometry x="105" y="580" width="190" height="160" as="geometry" />
          </mxCell>
        </object>
        <object label="&lt;font style=&quot;font-size: 14px&quot; color=&quot;#FFFFFF&quot;&gt;&lt;b&gt;&lt;font style=&quot;font-size: 14px&quot;&gt;&lt;span&gt;%A_NAME%&lt;/span&gt;&lt;/font&gt;&lt;/b&gt;&lt;/font&gt;&lt;font color=&quot;#FFFFFF&quot;&gt;&lt;br&gt;&lt;/font&gt;&lt;div&gt;&lt;font style=&quot;font-size: 11px&quot; color=&quot;#FFFFFF&quot;&gt;[Container: %B_TECHNOLOGY%]&lt;/font&gt;&lt;/div&gt;&lt;div style=&quot;font-size: 6px&quot;&gt;&lt;font color=&quot;#FFFFFF&quot;&gt;&lt;br&gt;&lt;/font&gt;&lt;/div&gt;&lt;div style=&quot;font-size: 11px&quot; align=&quot;center&quot;&gt;&lt;font color=&quot;#E6E6E6&quot;&gt;%C_DESCRIPTION%&lt;/font&gt;&lt;/div&gt;" A_NAME="Orquestração e Deploy" B_TECHNOLOGY="Kubernetes" C_DESCRIPTION="Kubernetes é utilizado para gerenciar a implantação, escalabilidade e disponibilidade dos microsserviços" placeholders="1" id="S8Ucj60LTVhsjl9VZMLG-70">
          <mxCell style="shape=cylinder3;whiteSpace=wrap;html=1;boundedLbl=1;backgroundOutline=0;size=15;fontFamily=Helvetica;fontSize=11;fontColor=#ffffff;strokeColor=#4D319B;rounded=1;fillColor=#6c45c8;spacing=5;spacingTop=-5;arcSize=6;rotation=90;textDirection=ltr;verticalAlign=middle;horizontal=0;allowArrows=0;recursiveResize=0;expand=0;resizable=0;rotatable=0;metaEdit=1;" vertex="1" parent="S8Ucj60LTVhsjl9VZMLG-43">
            <mxGeometry x="145" y="750" width="100" height="220" as="geometry" />
          </mxCell>
        </object>
        <object label="&lt;font style=&quot;font-size: 14px&quot;&gt;&lt;b&gt;%A_NAME%&lt;/b&gt;&lt;/font&gt;&lt;br&gt;&lt;div&gt;&lt;font style=&quot;font-size: 11px&quot;&gt;[Software System]&lt;/font&gt;&lt;/div&gt;&lt;div style=&quot;font-size: 6px&quot;&gt;&lt;br&gt;&lt;/div&gt;&lt;div style=&quot;font-size: 11px&quot;&gt;&lt;font color=&quot;#CCCCCC&quot;&gt;%B_DESCRIPTION%&lt;/font&gt;&lt;/div&gt;" placeholders="1" A_NAME="Aplicação" B_DESCRIPTION="Codigo da Aplicação" id="S8Ucj60LTVhsjl9VZMLG-71">
          <mxCell style="rounded=1;whiteSpace=wrap;html=1;fontColor=#ffffff;arcSize=6;metaEdit=1;points=[[0.25,0,0],[0.5,0,0],[0.75,0,0],[1,0.25,0],[1,0.5,0],[1,0.75,0],[0.75,1,0],[0.5,1,0],[0.25,1,0],[0,0.75,0],[0,0.5,0],[0,0.25,0]];resizable=0;editable=1;fillColor=#48279E;strokeColor=#2C186C;movableLabel=0;allowArrows=0;rotatable=0;imageWidth=24;spacing=5;" vertex="1" parent="S8Ucj60LTVhsjl9VZMLG-43">
            <mxGeometry x="85" y="980" width="220" height="100" as="geometry" />
          </mxCell>
        </object>
        <mxCell id="S8Ucj60LTVhsjl9VZMLG-44" style="edgeStyle=orthogonalEdgeStyle;rounded=0;orthogonalLoop=1;jettySize=auto;html=1;exitX=1;exitY=0.5;exitDx=0;exitDy=0;exitPerimeter=0;entryX=0;entryY=0.5;entryDx=0;entryDy=0;" edge="1" parent="1" source="S8Ucj60LTVhsjl9VZMLG-21" target="S8Ucj60LTVhsjl9VZMLG-43">
          <mxGeometry relative="1" as="geometry" />
        </mxCell>
        <mxCell id="S8Ucj60LTVhsjl9VZMLG-47" style="edgeStyle=orthogonalEdgeStyle;rounded=0;orthogonalLoop=1;jettySize=auto;html=1;exitX=1;exitY=0.5;exitDx=0;exitDy=0;exitPerimeter=0;entryX=0;entryY=0.5;entryDx=0;entryDy=0;" edge="1" parent="1" source="S8Ucj60LTVhsjl9VZMLG-22" target="S8Ucj60LTVhsjl9VZMLG-43">
          <mxGeometry relative="1" as="geometry" />
        </mxCell>
        <mxCell id="S8Ucj60LTVhsjl9VZMLG-48" style="edgeStyle=orthogonalEdgeStyle;rounded=0;orthogonalLoop=1;jettySize=auto;html=1;exitX=1;exitY=0.5;exitDx=0;exitDy=0;exitPerimeter=0;entryX=0;entryY=0.5;entryDx=0;entryDy=0;" edge="1" parent="1" source="S8Ucj60LTVhsjl9VZMLG-23" target="S8Ucj60LTVhsjl9VZMLG-43">
          <mxGeometry relative="1" as="geometry" />
        </mxCell>
        <mxCell id="S8Ucj60LTVhsjl9VZMLG-50" style="edgeStyle=orthogonalEdgeStyle;rounded=0;orthogonalLoop=1;jettySize=auto;html=1;exitX=1;exitY=0.5;exitDx=0;exitDy=0;exitPerimeter=0;entryX=0;entryY=0.5;entryDx=0;entryDy=0;" edge="1" parent="1" source="S8Ucj60LTVhsjl9VZMLG-24" target="S8Ucj60LTVhsjl9VZMLG-43">
          <mxGeometry relative="1" as="geometry" />
        </mxCell>
        <mxCell id="S8Ucj60LTVhsjl9VZMLG-52" style="edgeStyle=orthogonalEdgeStyle;rounded=0;orthogonalLoop=1;jettySize=auto;html=1;exitX=1;exitY=0.5;exitDx=0;exitDy=0;exitPerimeter=0;entryX=0;entryY=0.5;entryDx=0;entryDy=0;" edge="1" parent="1" source="S8Ucj60LTVhsjl9VZMLG-25" target="S8Ucj60LTVhsjl9VZMLG-43">
          <mxGeometry relative="1" as="geometry" />
        </mxCell>
        <mxCell id="S8Ucj60LTVhsjl9VZMLG-53" style="edgeStyle=orthogonalEdgeStyle;rounded=0;orthogonalLoop=1;jettySize=auto;html=1;exitX=1;exitY=0.5;exitDx=0;exitDy=0;exitPerimeter=0;entryX=0;entryY=0.5;entryDx=0;entryDy=0;" edge="1" parent="1" source="S8Ucj60LTVhsjl9VZMLG-2" target="S8Ucj60LTVhsjl9VZMLG-43">
          <mxGeometry relative="1" as="geometry" />
        </mxCell>
        <mxCell id="S8Ucj60LTVhsjl9VZMLG-54" style="edgeStyle=orthogonalEdgeStyle;rounded=0;orthogonalLoop=1;jettySize=auto;html=1;exitX=1;exitY=0.5;exitDx=0;exitDy=0;exitPerimeter=0;entryX=0;entryY=0.5;entryDx=0;entryDy=0;" edge="1" parent="1" source="S8Ucj60LTVhsjl9VZMLG-26" target="S8Ucj60LTVhsjl9VZMLG-43">
          <mxGeometry relative="1" as="geometry" />
        </mxCell>
        <mxCell id="S8Ucj60LTVhsjl9VZMLG-55" style="edgeStyle=orthogonalEdgeStyle;rounded=0;orthogonalLoop=1;jettySize=auto;html=1;exitX=1;exitY=0.5;exitDx=0;exitDy=0;exitPerimeter=0;entryX=0;entryY=0.5;entryDx=0;entryDy=0;" edge="1" parent="1" source="S8Ucj60LTVhsjl9VZMLG-28" target="S8Ucj60LTVhsjl9VZMLG-43">
          <mxGeometry relative="1" as="geometry" />
        </mxCell>
        <mxCell id="S8Ucj60LTVhsjl9VZMLG-62" value="&lt;font style=&quot;font-size: 20px;&quot;&gt;Componentes Front-End&lt;/font&gt;" style="swimlane;whiteSpace=wrap;html=1;startSize=45;" vertex="1" parent="1">
          <mxGeometry x="1540" y="1530" width="410" height="455" as="geometry" />
        </mxCell>
        <object label="&lt;font style=&quot;font-size: 14px&quot;&gt;&lt;b&gt;%A_NAME%&lt;/b&gt;&lt;/font&gt;&lt;br&gt;&lt;div&gt;&lt;font style=&quot;font-size: 11px&quot;&gt;[Software System]&lt;/font&gt;&lt;/div&gt;&lt;div style=&quot;font-size: 6px&quot;&gt;&lt;br&gt;&lt;/div&gt;&lt;div style=&quot;font-size: 11px&quot;&gt;&lt;font color=&quot;#CCCCCC&quot;&gt;%B_DESCRIPTION%&lt;/font&gt;&lt;/div&gt;" placeholders="1" A_NAME="Aplicação" B_DESCRIPTION="Codigo da Aplicação" id="S8Ucj60LTVhsjl9VZMLG-72">
          <mxCell style="rounded=1;whiteSpace=wrap;html=1;fontColor=#ffffff;arcSize=6;metaEdit=1;points=[[0.25,0,0],[0.5,0,0],[0.75,0,0],[1,0.25,0],[1,0.5,0],[1,0.75,0],[0.75,1,0],[0.5,1,0],[0.25,1,0],[0,0.75,0],[0,0.5,0],[0,0.25,0]];resizable=0;editable=1;fillColor=#48279E;strokeColor=#2C186C;movableLabel=0;allowArrows=0;rotatable=0;imageWidth=24;spacing=5;" vertex="1" parent="S8Ucj60LTVhsjl9VZMLG-62">
            <mxGeometry x="95" y="290" width="220" height="100" as="geometry" />
          </mxCell>
        </object>
        <object label="&lt;font style=&quot;font-size: 14px&quot; color=&quot;#FFFFFF&quot;&gt;&lt;b&gt;&lt;font style=&quot;font-size: 14px&quot;&gt;&lt;span&gt;%A_NAME%&lt;/span&gt;&lt;/font&gt;&lt;/b&gt;&lt;/font&gt;&lt;font color=&quot;#FFFFFF&quot;&gt;&lt;br&gt;&lt;/font&gt;&lt;div&gt;&lt;font style=&quot;font-size: 11px&quot; color=&quot;#FFFFFF&quot;&gt;[Container: %B_TECHNOLOGY%]&lt;/font&gt;&lt;/div&gt;&lt;div style=&quot;font-size: 6px&quot;&gt;&lt;font color=&quot;#FFFFFF&quot;&gt;&lt;br&gt;&lt;/font&gt;&lt;/div&gt;&lt;div style=&quot;font-size: 11px&quot; align=&quot;center&quot;&gt;&lt;font color=&quot;#E6E6E6&quot;&gt;%C_DESCRIPTION%&lt;/font&gt;&lt;/div&gt;" A_NAME="Orquestração e Deploy" B_TECHNOLOGY="Kubernetes" C_DESCRIPTION="Kubernetes é utilizado para gerenciar a implantação, escalabilidade e disponibilidade dos microsserviços" placeholders="1" id="S8Ucj60LTVhsjl9VZMLG-73">
          <mxCell style="shape=cylinder3;whiteSpace=wrap;html=1;boundedLbl=1;backgroundOutline=0;size=15;fontFamily=Helvetica;fontSize=11;fontColor=#ffffff;strokeColor=#4D319B;rounded=1;fillColor=#6c45c8;spacing=5;spacingTop=-5;arcSize=6;rotation=90;textDirection=ltr;verticalAlign=middle;horizontal=0;allowArrows=0;recursiveResize=0;expand=0;resizable=0;rotatable=0;metaEdit=1;" vertex="1" parent="S8Ucj60LTVhsjl9VZMLG-62">
            <mxGeometry x="155" y="60" width="100" height="220" as="geometry" />
          </mxCell>
        </object>
        <mxCell id="S8Ucj60LTVhsjl9VZMLG-63" value="&lt;font style=&quot;font-size: 20px;&quot;&gt;Componentes Mobile&lt;/font&gt;" style="swimlane;whiteSpace=wrap;html=1;startSize=45;" vertex="1" parent="1">
          <mxGeometry x="1550" y="2080" width="410" height="260" as="geometry" />
        </mxCell>
        <object label="&lt;font style=&quot;font-size: 14px&quot;&gt;&lt;b&gt;%A_NAME%&lt;/b&gt;&lt;/font&gt;&lt;br&gt;&lt;div&gt;&lt;font style=&quot;font-size: 11px&quot;&gt;[Software System]&lt;/font&gt;&lt;/div&gt;&lt;div style=&quot;font-size: 6px&quot;&gt;&lt;br&gt;&lt;/div&gt;&lt;div style=&quot;font-size: 11px&quot;&gt;&lt;font color=&quot;#CCCCCC&quot;&gt;%B_DESCRIPTION%&lt;/font&gt;&lt;/div&gt;" placeholders="1" A_NAME="Aplicação" B_DESCRIPTION="Codigo da Aplicação" id="S8Ucj60LTVhsjl9VZMLG-74">
          <mxCell style="rounded=1;whiteSpace=wrap;html=1;fontColor=#ffffff;arcSize=6;metaEdit=1;points=[[0.25,0,0],[0.5,0,0],[0.75,0,0],[1,0.25,0],[1,0.5,0],[1,0.75,0],[0.75,1,0],[0.5,1,0],[0.25,1,0],[0,0.75,0],[0,0.5,0],[0,0.25,0]];resizable=0;editable=1;fillColor=#48279E;strokeColor=#2C186C;movableLabel=0;allowArrows=0;rotatable=0;imageWidth=24;spacing=5;" vertex="1" parent="S8Ucj60LTVhsjl9VZMLG-63">
            <mxGeometry x="95" y="100" width="220" height="100" as="geometry" />
          </mxCell>
        </object>
        <mxCell id="S8Ucj60LTVhsjl9VZMLG-64" style="edgeStyle=orthogonalEdgeStyle;rounded=0;orthogonalLoop=1;jettySize=auto;html=1;exitX=1;exitY=0.7;exitDx=0;exitDy=0;entryX=0;entryY=0.5;entryDx=0;entryDy=0;" edge="1" parent="1" source="S8Ucj60LTVhsjl9VZMLG-58" target="S8Ucj60LTVhsjl9VZMLG-63">
          <mxGeometry relative="1" as="geometry" />
        </mxCell>
        <mxCell id="S8Ucj60LTVhsjl9VZMLG-65" style="edgeStyle=orthogonalEdgeStyle;rounded=0;orthogonalLoop=1;jettySize=auto;html=1;exitX=1;exitY=0.7;exitDx=0;exitDy=0;entryX=0;entryY=0.5;entryDx=0;entryDy=0;" edge="1" parent="1" source="S8Ucj60LTVhsjl9VZMLG-57" target="S8Ucj60LTVhsjl9VZMLG-62">
          <mxGeometry relative="1" as="geometry" />
        </mxCell>
        <mxCell id="S8Ucj60LTVhsjl9VZMLG-75" value="Código Back-End" style="swimlane;whiteSpace=wrap;html=1;startSize=40;fontSize=20;" vertex="1" parent="1">
          <mxGeometry x="2290" y="400" width="520" height="400" as="geometry" />
        </mxCell>
        <mxCell id="S8Ucj60LTVhsjl9VZMLG-78" value="&lt;font style=&quot;color: rgb(255, 255, 255); font-size: 15px;&quot;&gt;&lt;b&gt;Linguagem C#&lt;/b&gt;&lt;/font&gt;" style="rounded=1;whiteSpace=wrap;html=1;fillColor=light-dark(#6c45c8, #ededed);" vertex="1" parent="S8Ucj60LTVhsjl9VZMLG-75">
          <mxGeometry x="40" y="67.5" width="170" height="95" as="geometry" />
        </mxCell>
        <mxCell id="S8Ucj60LTVhsjl9VZMLG-79" value="&lt;font style=&quot;color: rgb(255, 255, 255); font-size: 15px;&quot;&gt;&lt;b&gt;Deve-se utilizar Domain driven Developer (DDD) com Event Driven Developer (EDD)&lt;/b&gt;&lt;/font&gt;" style="rounded=1;whiteSpace=wrap;html=1;fillColor=light-dark(#6c45c8, #ededed);" vertex="1" parent="S8Ucj60LTVhsjl9VZMLG-75">
          <mxGeometry x="270" y="58.75" width="220" height="112.5" as="geometry" />
        </mxCell>
        <mxCell id="S8Ucj60LTVhsjl9VZMLG-80" value="&lt;font color=&quot;#ffffff&quot;&gt;&lt;span style=&quot;font-size: 15px;&quot;&gt;&lt;b&gt;Deve-se utilizar GIT para versionamento&lt;/b&gt;&lt;/span&gt;&lt;/font&gt;" style="rounded=1;whiteSpace=wrap;html=1;fillColor=light-dark(#6c45c8, #ededed);" vertex="1" parent="S8Ucj60LTVhsjl9VZMLG-75">
          <mxGeometry x="40" y="210" width="170" height="95" as="geometry" />
        </mxCell>
        <mxCell id="S8Ucj60LTVhsjl9VZMLG-81" value="&lt;font color=&quot;#ffffff&quot;&gt;&lt;span style=&quot;font-size: 15px;&quot;&gt;&lt;b&gt;Deve-se utilizar o Azure DevOps para gerenciamento dos repositórios e CI/CD&lt;/b&gt;&lt;/span&gt;&lt;/font&gt;" style="rounded=1;whiteSpace=wrap;html=1;fillColor=light-dark(#6c45c8, #ededed);" vertex="1" parent="S8Ucj60LTVhsjl9VZMLG-75">
          <mxGeometry x="270" y="210" width="220" height="120" as="geometry" />
        </mxCell>
        <mxCell id="S8Ucj60LTVhsjl9VZMLG-76" style="edgeStyle=orthogonalEdgeStyle;rounded=0;orthogonalLoop=1;jettySize=auto;html=1;exitX=1;exitY=0.5;exitDx=0;exitDy=0;exitPerimeter=0;entryX=0;entryY=0.5;entryDx=0;entryDy=0;" edge="1" parent="1" source="S8Ucj60LTVhsjl9VZMLG-71" target="S8Ucj60LTVhsjl9VZMLG-75">
          <mxGeometry relative="1" as="geometry" />
        </mxCell>
      </root>
    </mxGraphModel>
  </diagram>
</mxfile>
